# MagicaVoxel @ Ephtracy

# group
o 

# material
mtllib untitled.mtl
usemtl palette

# normals
vn -1 0 0
vn 1 0 0
vn 0 0 1
vn 0 0 -1
vn 0 -1 0
vn 0 1 0

# texcoords
vt 0.275391 0.5
vt 0.283203 0.5

# verts
v -2 0 2
v -2 0 1.4
v -2 0.1 2
v -2 0.1 1.4
v -1.7 0 1.4
v -1.7 0 0.9
v -1.7 0.1 1.4
v -1.7 0.1 0.9
v -1.4 0 0.9
v -1.4 0 0.0999999
v -1.4 0.1 0.9
v -1.4 0.1 0.0999999
v -1.1 0 0.0999999
v -1.1 0 -0.8
v -1.1 0.1 0.0999999
v -1.1 0.1 -0.8
v -0.6 0 -0.8
v -0.6 0 -1.5
v -0.6 0.1 -0.8
v -0.6 0.1 -1.5
v -0.3 0 -1.5
v -0.3 0 -2
v -0.3 0.1 -1.5
v -0.3 0.1 -2
v 0.3 0 -1.5
v 0.3 0 -2
v 0.3 0.1 -1.5
v 0.3 0.1 -2
v 0.6 0 -0.8
v 0.6 0 -1.5
v 0.6 0.1 -0.8
v 0.6 0.1 -1.5
v 1.1 0 0.0999999
v 1.1 0 -0.8
v 1.1 0.1 0.0999999
v 1.1 0.1 -0.8
v 1.4 0 0.9
v 1.4 0 0.0999999
v 1.4 0.1 0.9
v 1.4 0.1 0.0999999
v 1.7 0 1.4
v 1.7 0 0.9
v 1.7 0.1 1.4
v 1.7 0.1 0.9
v 2 0 2
v 2 0 1.4
v 2 0.1 2
v 2 0.1 1.4
v -2 0 2
v -2 0.1 2
v 2 0 2
v 2 0.1 2
v -2 0 1.4
v -2 0.1 1.4
v -1.7 0 1.4
v -1.7 0.1 1.4
v 1.7 0 1.4
v 1.7 0.1 1.4
v 2 0 1.4
v 2 0.1 1.4
v -1.7 0 0.9
v -1.7 0.1 0.9
v -1.4 0 0.9
v -1.4 0.1 0.9
v 1.4 0 0.9
v 1.4 0.1 0.9
v 1.7 0 0.9
v 1.7 0.1 0.9
v -1.4 0 0.0999999
v -1.4 0.1 0.0999999
v -1.1 0 0.0999999
v -1.1 0.1 0.0999999
v 1.1 0 0.0999999
v 1.1 0.1 0.0999999
v 1.4 0 0.0999999
v 1.4 0.1 0.0999999
v -1.1 0 -0.8
v -1.1 0.1 -0.8
v -0.6 0 -0.8
v -0.6 0.1 -0.8
v 0.6 0 -0.8
v 0.6 0.1 -0.8
v 1.1 0 -0.8
v 1.1 0.1 -0.8
v -0.6 0 -1.5
v -0.6 0.1 -1.5
v -0.3 0 -1.5
v -0.3 0.1 -1.5
v 0.3 0 -1.5
v 0.3 0.1 -1.5
v 0.6 0 -1.5
v 0.6 0.1 -1.5
v -0.3 0 -2
v -0.3 0.1 -2
v 0.3 0 -2
v 0.3 0.1 -2
v -2 0 2
v 2 0 2
v -1.8 0 1.8
v -1.7 0 1.8
v -1.5 0 1.8
v -1.1 0 1.8
v -0.9 0 1.8
v -0.6 0 1.8
v -0.4 0 1.8
v 0.4 0 1.8
v 0.6 0 1.8
v 0.9 0 1.8
v 1.1 0 1.8
v 1.5 0 1.8
v 1.7 0 1.8
v 1.8 0 1.8
v -1.8 0 1.6
v -1.7 0 1.6
v 1.7 0 1.6
v 1.8 0 1.6
v -2 0 1.4
v -1.7 0 1.4
v 1.7 0 1.4
v 2 0 1.4
v -1.5 0 1.1
v -1.2 0 1.1
v 1.2 0 1.1
v 1.5 0 1.1
v -1.7 0 0.9
v -1.4 0 0.9
v 1.4 0 0.9
v 1.7 0 0.9
v -1.2 0 0.3
v -1.1 0 0.3
v 1.1 0 0.3
v 1.2 0 0.3
v -1.4 0 0.0999999
v -1.1 0 0.0999999
v 1.1 0 0.0999999
v 1.4 0 0.0999999
v -0.9 0 -0.6
v -0.6 0 -0.6
v 0.6 0 -0.6
v 0.9 0 -0.6
v -1.1 0 -0.8
v -0.6 0 -0.8
v 0.6 0 -0.8
v 1.1 0 -0.8
v -0.4 0 -1.3
v -0.0999999 0 -1.3
v 0.1 0 -1.3
v 0.4 0 -1.3
v -0.6 0 -1.5
v -0.3 0 -1.5
v 0.3 0 -1.5
v 0.6 0 -1.5
v -0.0999999 0 -1.8
v 0.1 0 -1.8
v -0.3 0 -2
v 0.3 0 -2
v -2 0.1 2
v 2 0.1 2
v -1.8 0.1 1.8
v -1.7 0.1 1.8
v -1.5 0.1 1.8
v -1.1 0.1 1.8
v -0.9 0.1 1.8
v -0.6 0.1 1.8
v -0.4 0.1 1.8
v 0.4 0.1 1.8
v 0.6 0.1 1.8
v 0.9 0.1 1.8
v 1.1 0.1 1.8
v 1.5 0.1 1.8
v 1.7 0.1 1.8
v 1.8 0.1 1.8
v -1.8 0.1 1.6
v -1.7 0.1 1.6
v 1.7 0.1 1.6
v 1.8 0.1 1.6
v -2 0.1 1.4
v -1.7 0.1 1.4
v 1.7 0.1 1.4
v 2 0.1 1.4
v -1.5 0.1 1.1
v -1.2 0.1 1.1
v 1.2 0.1 1.1
v 1.5 0.1 1.1
v -1.7 0.1 0.9
v -1.4 0.1 0.9
v 1.4 0.1 0.9
v 1.7 0.1 0.9
v -1.2 0.1 0.3
v -1.1 0.1 0.3
v 1.1 0.1 0.3
v 1.2 0.1 0.3
v -1.4 0.1 0.0999999
v -1.1 0.1 0.0999999
v 1.1 0.1 0.0999999
v 1.4 0.1 0.0999999
v -0.9 0.1 -0.6
v -0.6 0.1 -0.6
v 0.6 0.1 -0.6
v 0.9 0.1 -0.6
v -1.1 0.1 -0.8
v -0.6 0.1 -0.8
v 0.6 0.1 -0.8
v 1.1 0.1 -0.8
v -0.4 0.1 -1.3
v -0.0999999 0.1 -1.3
v 0.1 0.1 -1.3
v 0.4 0.1 -1.3
v -0.6 0.1 -1.5
v -0.3 0.1 -1.5
v 0.3 0.1 -1.5
v 0.6 0.1 -1.5
v -0.0999999 0.1 -1.8
v 0.1 0.1 -1.8
v -0.3 0.1 -2
v 0.3 0.1 -2

# faces
f 3/1/1 2/1/1 1/1/1
f 4/1/1 2/1/1 3/1/1
f 7/1/1 6/1/1 5/1/1
f 8/1/1 6/1/1 7/1/1
f 11/1/1 10/1/1 9/1/1
f 12/1/1 10/1/1 11/1/1
f 15/1/1 14/1/1 13/1/1
f 16/1/1 14/1/1 15/1/1
f 19/1/1 18/1/1 17/1/1
f 20/1/1 18/1/1 19/1/1
f 23/1/1 22/1/1 21/1/1
f 24/1/1 22/1/1 23/1/1
f 25/1/2 26/1/2 27/1/2
f 27/1/2 26/1/2 28/1/2
f 29/1/2 30/1/2 31/1/2
f 31/1/2 30/1/2 32/1/2
f 33/1/2 34/1/2 35/1/2
f 35/1/2 34/1/2 36/1/2
f 37/1/2 38/1/2 39/1/2
f 39/1/2 38/1/2 40/1/2
f 41/1/2 42/1/2 43/1/2
f 43/1/2 42/1/2 44/1/2
f 45/1/2 46/1/2 47/1/2
f 47/1/2 46/1/2 48/1/2
f 51/1/3 50/1/3 49/1/3
f 52/1/3 50/1/3 51/1/3
f 53/1/4 54/1/4 55/1/4
f 55/1/4 54/1/4 56/1/4
f 57/1/4 58/1/4 59/1/4
f 59/1/4 58/1/4 60/1/4
f 61/1/4 62/1/4 63/1/4
f 63/1/4 62/1/4 64/1/4
f 65/1/4 66/1/4 67/1/4
f 67/1/4 66/1/4 68/1/4
f 69/1/4 70/1/4 71/1/4
f 71/1/4 70/1/4 72/1/4
f 73/1/4 74/1/4 75/1/4
f 75/1/4 74/1/4 76/1/4
f 77/1/4 78/1/4 79/1/4
f 79/1/4 78/1/4 80/1/4
f 81/1/4 82/1/4 83/1/4
f 83/1/4 82/1/4 84/1/4
f 85/1/4 86/1/4 87/1/4
f 87/1/4 86/1/4 88/1/4
f 89/1/4 90/1/4 91/1/4
f 91/1/4 90/1/4 92/1/4
f 93/1/4 94/1/4 95/1/4
f 95/1/4 94/1/4 96/1/4
f 99/1/5 98/1/5 97/1/5
f 100/1/5 98/1/5 99/1/5
f 101/1/5 98/1/5 100/1/5
f 102/1/5 98/1/5 101/1/5
f 103/1/5 98/1/5 102/1/5
f 104/1/5 98/1/5 103/1/5
f 105/1/5 98/1/5 104/1/5
f 106/1/5 98/1/5 105/1/5
f 107/1/5 98/1/5 106/1/5
f 108/1/5 98/1/5 107/1/5
f 109/1/5 98/1/5 108/1/5
f 110/1/5 98/1/5 109/1/5
f 111/1/5 98/1/5 110/1/5
f 112/1/5 98/1/5 111/1/5
f 113/1/5 99/1/5 97/1/5
f 113/2/5 100/2/5 99/2/5
f 114/1/5 101/1/5 100/1/5
f 114/2/5 100/2/5 113/2/5
f 115/2/5 112/2/5 111/2/5
f 115/1/5 111/1/5 110/1/5
f 116/1/5 98/1/5 112/1/5
f 116/2/5 112/2/5 115/2/5
f 117/1/5 113/1/5 97/1/5
f 117/1/5 114/1/5 113/1/5
f 118/1/5 101/1/5 114/1/5
f 118/1/5 114/1/5 117/1/5
f 119/1/5 115/1/5 110/1/5
f 119/1/5 116/1/5 115/1/5
f 120/1/5 98/1/5 116/1/5
f 120/1/5 116/1/5 119/1/5
f 121/1/5 101/1/5 118/1/5
f 121/2/5 102/2/5 101/2/5
f 122/2/5 102/2/5 121/2/5
f 123/2/5 110/2/5 109/2/5
f 124/1/5 119/1/5 110/1/5
f 124/2/5 110/2/5 123/2/5
f 125/1/5 121/1/5 118/1/5
f 125/1/5 122/1/5 121/1/5
f 126/1/5 122/1/5 125/1/5
f 127/1/5 124/1/5 123/1/5
f 128/1/5 119/1/5 124/1/5
f 128/1/5 124/1/5 127/1/5
f 129/2/5 102/2/5 122/2/5
f 129/1/5 122/1/5 126/1/5
f 130/1/5 103/1/5 102/1/5
f 130/2/5 102/2/5 129/2/5
f 131/2/5 123/2/5 109/2/5
f 131/1/5 109/1/5 108/1/5
f 132/1/5 127/1/5 123/1/5
f 132/2/5 123/2/5 131/2/5
f 133/1/5 129/1/5 126/1/5
f 133/1/5 130/1/5 129/1/5
f 134/1/5 103/1/5 130/1/5
f 134/1/5 130/1/5 133/1/5
f 135/1/5 132/1/5 131/1/5
f 135/1/5 131/1/5 108/1/5
f 136/1/5 127/1/5 132/1/5
f 136/1/5 132/1/5 135/1/5
f 137/2/5 104/2/5 103/2/5
f 137/1/5 103/1/5 134/1/5
f 138/1/5 105/1/5 104/1/5
f 138/2/5 104/2/5 137/2/5
f 139/1/5 107/1/5 106/1/5
f 139/2/5 108/2/5 107/2/5
f 140/1/5 135/1/5 108/1/5
f 140/2/5 108/2/5 139/2/5
f 141/1/5 137/1/5 134/1/5
f 141/1/5 138/1/5 137/1/5
f 142/1/5 105/1/5 138/1/5
f 142/1/5 138/1/5 141/1/5
f 143/1/5 139/1/5 106/1/5
f 143/1/5 140/1/5 139/1/5
f 144/1/5 135/1/5 140/1/5
f 144/1/5 140/1/5 143/1/5
f 145/1/5 105/1/5 142/1/5
f 145/2/5 106/2/5 105/2/5
f 146/2/5 106/2/5 145/2/5
f 147/2/5 106/2/5 146/2/5
f 148/1/5 143/1/5 106/1/5
f 148/2/5 106/2/5 147/2/5
f 149/1/5 145/1/5 142/1/5
f 149/1/5 146/1/5 145/1/5
f 150/1/5 146/1/5 149/1/5
f 151/1/5 148/1/5 147/1/5
f 152/1/5 143/1/5 148/1/5
f 152/1/5 148/1/5 151/1/5
f 153/2/5 147/2/5 146/2/5
f 153/1/5 146/1/5 150/1/5
f 154/1/5 151/1/5 147/1/5
f 154/2/5 147/2/5 153/2/5
f 155/1/5 153/1/5 150/1/5
f 155/1/5 154/1/5 153/1/5
f 156/1/5 151/1/5 154/1/5
f 156/1/5 154/1/5 155/1/5
f 157/1/6 158/1/6 159/1/6
f 159/1/6 158/1/6 160/1/6
f 160/1/6 158/1/6 161/1/6
f 161/1/6 158/1/6 162/1/6
f 162/1/6 158/1/6 163/1/6
f 163/1/6 158/1/6 164/1/6
f 164/1/6 158/1/6 165/1/6
f 165/1/6 158/1/6 166/1/6
f 166/1/6 158/1/6 167/1/6
f 167/1/6 158/1/6 168/1/6
f 168/1/6 158/1/6 169/1/6
f 169/1/6 158/1/6 170/1/6
f 170/1/6 158/1/6 171/1/6
f 171/1/6 158/1/6 172/1/6
f 157/1/6 159/1/6 173/1/6
f 159/2/6 160/2/6 173/2/6
f 160/1/6 161/1/6 174/1/6
f 173/2/6 160/2/6 174/2/6
f 171/2/6 172/2/6 175/2/6
f 170/1/6 171/1/6 175/1/6
f 172/1/6 158/1/6 176/1/6
f 175/2/6 172/2/6 176/2/6
f 157/1/6 173/1/6 177/1/6
f 173/1/6 174/1/6 177/1/6
f 174/1/6 161/1/6 178/1/6
f 177/1/6 174/1/6 178/1/6
f 170/1/6 175/1/6 179/1/6
f 175/1/6 176/1/6 179/1/6
f 176/1/6 158/1/6 180/1/6
f 179/1/6 176/1/6 180/1/6
f 178/1/6 161/1/6 181/1/6
f 161/2/6 162/2/6 181/2/6
f 181/2/6 162/2/6 182/2/6
f 169/2/6 170/2/6 183/2/6
f 170/1/6 179/1/6 184/1/6
f 183/2/6 170/2/6 184/2/6
f 178/1/6 181/1/6 185/1/6
f 181/1/6 182/1/6 185/1/6
f 185/1/6 182/1/6 186/1/6
f 183/1/6 184/1/6 187/1/6
f 184/1/6 179/1/6 188/1/6
f 187/1/6 184/1/6 188/1/6
f 182/2/6 162/2/6 189/2/6
f 186/1/6 182/1/6 189/1/6
f 162/1/6 163/1/6 190/1/6
f 189/2/6 162/2/6 190/2/6
f 169/2/6 183/2/6 191/2/6
f 168/1/6 169/1/6 191/1/6
f 183/1/6 187/1/6 192/1/6
f 191/2/6 183/2/6 192/2/6
f 186/1/6 189/1/6 193/1/6
f 189/1/6 190/1/6 193/1/6
f 190/1/6 163/1/6 194/1/6
f 193/1/6 190/1/6 194/1/6
f 191/1/6 192/1/6 195/1/6
f 168/1/6 191/1/6 195/1/6
f 192/1/6 187/1/6 196/1/6
f 195/1/6 192/1/6 196/1/6
f 163/2/6 164/2/6 197/2/6
f 194/1/6 163/1/6 197/1/6
f 164/1/6 165/1/6 198/1/6
f 197/2/6 164/2/6 198/2/6
f 166/1/6 167/1/6 199/1/6
f 167/2/6 168/2/6 199/2/6
f 168/1/6 195/1/6 200/1/6
f 199/2/6 168/2/6 200/2/6
f 194/1/6 197/1/6 201/1/6
f 197/1/6 198/1/6 201/1/6
f 198/1/6 165/1/6 202/1/6
f 201/1/6 198/1/6 202/1/6
f 166/1/6 199/1/6 203/1/6
f 199/1/6 200/1/6 203/1/6
f 200/1/6 195/1/6 204/1/6
f 203/1/6 200/1/6 204/1/6
f 202/1/6 165/1/6 205/1/6
f 165/2/6 166/2/6 205/2/6
f 205/2/6 166/2/6 206/2/6
f 206/2/6 166/2/6 207/2/6
f 166/1/6 203/1/6 208/1/6
f 207/2/6 166/2/6 208/2/6
f 202/1/6 205/1/6 209/1/6
f 205/1/6 206/1/6 209/1/6
f 209/1/6 206/1/6 210/1/6
f 207/1/6 208/1/6 211/1/6
f 208/1/6 203/1/6 212/1/6
f 211/1/6 208/1/6 212/1/6
f 206/2/6 207/2/6 213/2/6
f 210/1/6 206/1/6 213/1/6
f 207/1/6 211/1/6 214/1/6
f 213/2/6 207/2/6 214/2/6
f 210/1/6 213/1/6 215/1/6
f 213/1/6 214/1/6 215/1/6
f 214/1/6 211/1/6 216/1/6
f 215/1/6 214/1/6 216/1/6
